{
  "accessors": [
    {
      "bufferView": 2,
      "componentType": 5126,
      "count": 6806,
      "max": [
        1.833122968673706,
        0.571286141872406,
        0.7480000257492065
      ],
      "min": [
        -1.8325777053833008,
        -0.7260075807571411,
        3.039836883544922e-05
      ],
      "type": "VEC3"
    },
    {
      "bufferView": 2,
      "byteOffset": 81672,
      "componentType": 5126,
      "count": 6806,
      "max": [
        1.0,
        1.0,
        1.0
      ],
      "min": [
        -1.0,
        -1.0,
        -1.0
      ],
      "type": "VEC3"
    },
    {
      "bufferView": 3,
      "componentType": 5126,
      "count": 6806,
      "max": [
        1.0,
        1.0,
        1.0,
        1.0
      ],
      "min": [
        -1.0,
        -1.0,
        -1.0,
        -1.0
      ],
      "type": "VEC4"
    },
    {
      "bufferView": 1,
      "componentType": 5126,
      "count": 6806,
      "max": [
        0.996326208114624,
        0.985939085483551
      ],
      "min": [
        0.0036738677881658077,
        0.016346173360943794
      ],
      "type": "VEC2"
    },
    {
      "bufferView": 1,
      "byteOffset": 54448,
      "componentType": 5126,
      "count": 6806,
      "max": [
        0.996326208114624,
        0.985939085483551
      ],
      "min": [
        0.0036738677881658077,
        0.016346173360943794
      ],
      "type": "VEC2"
    },
    {
      "bufferView": 1,
      "byteOffset": 108896,
      "componentType": 5126,
      "count": 6806,
      "max": [
        0.996326208114624,
        0.985939085483551
      ],
      "min": [
        0.0036738677881658077,
        0.016346173360943794
      ],
      "type": "VEC2"
    },
    {
      "bufferView": 0,
      "componentType": 5125,
      "count": 24168,
      "type": "SCALAR"
    }
  ],
  "asset": {
    "extras": {
      "author": "Avot (https://sketchfab.com/avot)",
      "license": "CC-BY-4.0 (http://creativecommons.org/licenses/by/4.0/)",
      "source": "https://sketchfab.com/3d-models/school-cafeteria-table-e0a0be3011da4e19963467d20daeaf61",
      "title": "School Cafeteria Table"
    },
    "generator": "Sketchfab-12.65.0",
    "version": "2.0"
  },
  "bufferViews": [
    {
      "buffer": 0,
      "byteLength": 96672,
      "name": "floatBufferViews",
      "target": 34963
    },
    {
      "buffer": 0,
      "byteLength": 163344,
      "byteOffset": 96672,
      "byteStride": 8,
      "name": "floatBufferViews",
      "target": 34962
    },
    {
      "buffer": 0,
      "byteLength": 163344,
      "byteOffset": 260016,
      "byteStride": 12,
      "name": "floatBufferViews",
      "target": 34962
    },
    {
      "buffer": 0,
      "byteLength": 108896,
      "byteOffset": 423360,
      "byteStride": 16,
      "name": "floatBufferViews",
      "target": 34962
    }
  ],
  "buffers": [
    {
      "byteLength": 532256,
      "uri": "scene.bin"
    }
  ],
  "images": [
    {
      "uri": "textures/cafeteria_table_baseColor.png"
    },
    {
      "uri": "textures/cafeteria_table_metallicRoughness.png"
    },
    {
      "uri": "textures/cafeteria_table_normal.png"
    }
  ],
  "materials": [
    {
      "doubleSided": true,
      "name": "cafeteria_table",
      "normalTexture": {
        "index": 2
      },
      "occlusionTexture": {
        "index": 1
      },
      "pbrMetallicRoughness": {
        "baseColorTexture": {
          "index": 0
        },
        "metallicRoughnessTexture": {
          "index": 1
        }
      }
    }
  ],
  "meshes": [
    {
      "name": "cafeteria_table_cafeteria_table_0",
      "primitives": [
        {
          "attributes": {
            "NORMAL": 1,
            "POSITION": 0,
            "TANGENT": 2,
            "TEXCOORD_0": 3,
            "TEXCOORD_1": 4,
            "TEXCOORD_2": 5
          },
          "indices": 6,
          "material": 0,
          "mode": 4
        }
      ]
    }
  ],
  "nodes": [
    {
      "children": [
        1
      ],
      "matrix": [
        1.0,
        0.0,
        0.0,
        0.0,
        0.0,
        2.220446049250313e-16,
        -1.0,
        0.0,
        0.0,
        1.0,
        2.220446049250313e-16,
        0.0,
        0.0,
        0.0,
        0.0,
        1.0
      ],
      "name": "Sketchfab_model"
    },
    {
      "children": [
        2
      ],
      "matrix": [
        0.009999999776482582,
        0.0,
        0.0,
        0.0,
        0.0,
        0.0,
        0.009999999776482582,
        0.0,
        0.0,
        -0.009999999776482582,
        0.0,
        0.0,
        0.0,
        0.0,
        0.0,
        1.0
      ],
      "name": "cafeteria_table.fbx"
    },
    {
      "children": [
        3
      ],
      "name": "RootNode"
    },
    {
      "children": [
        4
      ],
      "matrix": [
        100.0,
        0.0,
        0.0,
        0.0,
        0.0,
        -1.629206793918314e-05,
        -99.99999999999868,
        0.0,
        0.0,
        99.99999999999868,
        -1.629206793918314e-05,
        0.0,
        0.0,
        0.0,
        0.0,
        1.0
      ],
      "name": "cafeteria_table"
    },
    {
      "mesh": 0,
      "name": "cafeteria_table_cafeteria_table_0"
    }
  ],
  "samplers": [
    {
      "magFilter": 9729,
      "minFilter": 9987,
      "wrapS": 10497,
      "wrapT": 10497
    }
  ],
  "scene": 0,
  "scenes": [
    {
      "name": "Sketchfab_Scene",
      "nodes": [
        0
      ]
    }
  ],
  "textures": [
    {
      "sampler": 0,
      "source": 0
    },
    {
      "sampler": 0,
      "source": 1
    },
    {
      "sampler": 0,
      "source": 2
    }
  ]
}
